<mxfile host="app.diagrams.net" modified="2020-08-29T19:13:08.054Z" agent="5.0 (Windows NT 6.3; Win64; x64) AppleWebKit/537.36 (KHTML, like Gecko) Chrome/84.0.4147.135 Safari/537.36" etag="_E09regDp0bEHKma5S1r" version="13.6.5" type="github">
  <diagram id="CoMQu9GykvPQmY-9xK71" name="Page-1">
    <mxGraphModel dx="868" dy="482" grid="1" gridSize="10" guides="1" tooltips="1" connect="1" arrows="1" fold="1" page="1" pageScale="1" pageWidth="827" pageHeight="1169" math="0" shadow="0">
      <root>
        <mxCell id="0" />
        <mxCell id="1" parent="0" />
        <mxCell id="EYJJrxo5hP6jAQwK5u1l-1" value="" style="verticalLabelPosition=bottom;verticalAlign=top;html=1;shadow=0;dashed=0;strokeWidth=1;shape=mxgraph.android.phone2;strokeColor=#6c8ebf;fillColor=#dae8fc;" parent="1" vertex="1">
          <mxGeometry x="70" y="50" width="190" height="390" as="geometry" />
        </mxCell>
        <mxCell id="EYJJrxo5hP6jAQwK5u1l-4" value="" style="verticalLabelPosition=bottom;verticalAlign=top;html=1;shadow=0;dashed=0;strokeWidth=1;shape=rect;" parent="1" vertex="1">
          <mxGeometry x="75" y="80" width="180" height="330" as="geometry" />
        </mxCell>
        <mxCell id="NRuBFTdG2EJ028ScVjr8-156" style="edgeStyle=orthogonalEdgeStyle;rounded=0;orthogonalLoop=1;jettySize=auto;html=1;entryX=-0.02;entryY=0.218;entryDx=0;entryDy=0;entryPerimeter=0;" edge="1" parent="1" source="EYJJrxo5hP6jAQwK5u1l-6" target="NRuBFTdG2EJ028ScVjr8-34">
          <mxGeometry relative="1" as="geometry" />
        </mxCell>
        <mxCell id="EYJJrxo5hP6jAQwK5u1l-6" value="iniciar sesión con facebook" style="rounded=1;html=1;shadow=0;whiteSpace=wrap;fontSize=10;fillColor=#0050ef;align=center;strokeColor=#001DBC;fontColor=#ffffff;" parent="1" vertex="1">
          <mxGeometry x="90" y="230" width="150" height="30" as="geometry" />
        </mxCell>
        <mxCell id="NRuBFTdG2EJ028ScVjr8-34" value="" style="verticalLabelPosition=bottom;verticalAlign=top;html=1;shadow=0;dashed=0;strokeWidth=1;shape=mxgraph.android.phone2;strokeColor=#c0c0c0;" vertex="1" parent="1">
          <mxGeometry x="320" y="50" width="200" height="390" as="geometry" />
        </mxCell>
        <mxCell id="NRuBFTdG2EJ028ScVjr8-166" style="edgeStyle=orthogonalEdgeStyle;rounded=0;orthogonalLoop=1;jettySize=auto;html=1;exitX=0.5;exitY=0;exitDx=0;exitDy=0;entryX=1;entryY=0.25;entryDx=0;entryDy=0;" edge="1" parent="1" target="NRuBFTdG2EJ028ScVjr8-68">
          <mxGeometry relative="1" as="geometry">
            <mxPoint x="414" y="110" as="sourcePoint" />
          </mxGeometry>
        </mxCell>
        <mxCell id="NRuBFTdG2EJ028ScVjr8-35" value="" style="verticalLabelPosition=bottom;verticalAlign=top;html=1;shadow=0;dashed=0;strokeWidth=1;strokeColor=#ae4132;shape=rect;fillColor=#fad9d5;" vertex="1" parent="1">
          <mxGeometry x="324" y="75" width="190" height="330" as="geometry" />
        </mxCell>
        <mxCell id="NRuBFTdG2EJ028ScVjr8-42" value="Dirección de envio" style="text;fontSize=16;verticalAlign=middle;strokeWidth=15;rounded=0;fontStyle=1" vertex="1" parent="1">
          <mxGeometry x="331" y="240" width="155" height="20" as="geometry" />
        </mxCell>
        <mxCell id="NRuBFTdG2EJ028ScVjr8-43" value="" style="dashed=0;shape=line;strokeWidth=1;noLabel=1;strokeColor=#432D57;opacity=50;fillColor=#76608a;fontColor=#ffffff;" vertex="1" parent="1">
          <mxGeometry x="331" y="270" width="166" height="10" as="geometry" />
        </mxCell>
        <mxCell id="NRuBFTdG2EJ028ScVjr8-66" value="" style="shape=rect;strokeColor=none;fillColor=none;rounded=0;" vertex="1" parent="1">
          <mxGeometry x="330" y="125" width="180" height="30" as="geometry" />
        </mxCell>
        <mxCell id="NRuBFTdG2EJ028ScVjr8-67" value="" style="dashed=0;shape=mxgraph.gmdl.telephone;strokeColor=none;fillColor=#666666;" vertex="1" parent="NRuBFTdG2EJ028ScVjr8-66">
          <mxGeometry y="0.5" width="16" height="20" relative="1" as="geometry">
            <mxPoint y="-20" as="offset" />
          </mxGeometry>
        </mxCell>
        <mxCell id="NRuBFTdG2EJ028ScVjr8-68" value="numero" style="text;fontColor=#000000;fontSize=16;verticalAlign=middle;strokeColor=none;fillColor=none;fontStyle=1" vertex="1" parent="NRuBFTdG2EJ028ScVjr8-66">
          <mxGeometry x="30.05090909090909" y="-10" width="35.403636363636366" height="25.714285714285715" as="geometry" />
        </mxCell>
        <mxCell id="NRuBFTdG2EJ028ScVjr8-69" value="" style="dashed=0;shape=line;strokeWidth=1;noLabel=1;strokeColor=#E6E6E6;" vertex="1" parent="NRuBFTdG2EJ028ScVjr8-66">
          <mxGeometry x="22.966507177033492" y="21.428571428571427" width="71.45135566188199" height="8.57142857142857" as="geometry" />
        </mxCell>
        <mxCell id="NRuBFTdG2EJ028ScVjr8-70" value="Mobile" style="text;fontColor=#000000;fontSize=16;verticalAlign=middle;strokeColor=none;fillColor=none;fontStyle=1" vertex="1" parent="NRuBFTdG2EJ028ScVjr8-66">
          <mxGeometry x="107.18" y="-10" width="72.82" height="25.714285714285715" as="geometry" />
        </mxCell>
        <mxCell id="NRuBFTdG2EJ028ScVjr8-71" value="" style="dashed=0;shape=triangle;noLabel=1;strokeColor=none;fillColor=#666666;direction=south;" vertex="1" parent="NRuBFTdG2EJ028ScVjr8-70">
          <mxGeometry x="1" y="0.5" width="10" height="5" relative="1" as="geometry">
            <mxPoint x="-14" y="-3" as="offset" />
          </mxGeometry>
        </mxCell>
        <mxCell id="NRuBFTdG2EJ028ScVjr8-72" value="" style="dashed=0;shape=line;strokeWidth=1;noLabel=1;strokeColor=#E6E6E6;" vertex="1" parent="NRuBFTdG2EJ028ScVjr8-66">
          <mxGeometry x="107.177033492823" y="21.428571428571427" width="38.277511961722496" height="8.57142857142857" as="geometry" />
        </mxCell>
        <mxCell id="NRuBFTdG2EJ028ScVjr8-152" value="Detalle de la direccion" style="text;fontSize=16;verticalAlign=middle;strokeWidth=15;rounded=0;fontStyle=1" vertex="1" parent="1">
          <mxGeometry x="330" y="280" width="155" height="20" as="geometry" />
        </mxCell>
        <mxCell id="NRuBFTdG2EJ028ScVjr8-153" value="" style="dashed=0;shape=line;strokeWidth=1;noLabel=1;strokeColor=#432D57;opacity=50;fillColor=#76608a;fontColor=#ffffff;" vertex="1" parent="1">
          <mxGeometry x="330" y="305" width="166" height="10" as="geometry" />
        </mxCell>
        <mxCell id="NRuBFTdG2EJ028ScVjr8-157" value="Enviar datos" style="dashed=0;align=center;fontSize=12;shape=rect;fillColor=#e51400;strokeColor=#B20000;fontStyle=1;shadow=1;rounded=0;fontColor=#ffffff;" vertex="1" parent="1">
          <mxGeometry x="325" y="330" width="80" height="36" as="geometry" />
        </mxCell>
        <mxCell id="NRuBFTdG2EJ028ScVjr8-159" value="Salir" style="dashed=0;align=center;fontSize=12;shape=rect;fillColor=#e51400;strokeColor=#B20000;fontStyle=1;shadow=1;rounded=0;fontColor=#ffffff;" vertex="1" parent="1">
          <mxGeometry x="425" y="330" width="80" height="36" as="geometry" />
        </mxCell>
        <mxCell id="NRuBFTdG2EJ028ScVjr8-160" value="Correo electronico:" style="text;fontSize=16;verticalAlign=middle;strokeWidth=15;rounded=0;fontStyle=1" vertex="1" parent="1">
          <mxGeometry x="332" y="155" width="155" height="20" as="geometry" />
        </mxCell>
        <mxCell id="NRuBFTdG2EJ028ScVjr8-161" value="" style="dashed=0;shape=line;strokeWidth=1;noLabel=1;strokeColor=#432D57;opacity=50;fillColor=#76608a;fontColor=#ffffff;" vertex="1" parent="1">
          <mxGeometry x="332" y="175" width="166" height="20" as="geometry" />
        </mxCell>
        <mxCell id="NRuBFTdG2EJ028ScVjr8-162" value="nombre:" style="text;fontSize=16;verticalAlign=middle;strokeWidth=15;rounded=0;fontStyle=1" vertex="1" parent="1">
          <mxGeometry x="331" y="195" width="155" height="20" as="geometry" />
        </mxCell>
        <mxCell id="NRuBFTdG2EJ028ScVjr8-163" value="" style="dashed=0;shape=line;strokeWidth=1;noLabel=1;strokeColor=#432D57;opacity=50;fillColor=#76608a;fontColor=#ffffff;" vertex="1" parent="1">
          <mxGeometry x="331" y="225" width="166" height="10" as="geometry" />
        </mxCell>
      </root>
    </mxGraphModel>
  </diagram>
</mxfile>
